# Blender v2.72 (sub 0) OBJ File: ''
# www.blender.org
mtllib wall.mtl
o wall
v 1.034700 -1.970300 0.093200
v 1.310300 -1.970300 0.093200
v 1.310300 1.970300 0.093200
v 1.034700 1.970300 0.093200
v 1.310300 1.970300 -0.093200
v 1.034700 1.970300 -0.093200
v 1.310300 -1.970300 -0.093200
v 1.034700 -1.970300 -0.093200
v 4.035700 -1.970300 0.093200
v 4.311300 -1.970300 0.093200
v 4.311300 1.970300 0.093200
v 4.035700 1.970300 0.093200
v 4.311300 1.970300 -0.093200
v 4.035700 1.970300 -0.093200
v 4.311300 -1.970300 -0.093200
v 4.035700 -1.970300 -0.093200
v 2.529100 -1.970300 0.093200
v 2.804700 -1.970300 0.093200
v 2.804700 1.970300 0.093200
v 2.529100 1.970300 0.093200
v 2.804700 1.970300 -0.093200
v 2.529100 1.970300 -0.093200
v 2.804700 -1.970300 -0.093200
v 2.529100 -1.970300 -0.093200
v 5.538000 -1.970300 0.093200
v 5.813600 -1.970300 0.093200
v 5.813600 1.970300 0.093200
v 5.538000 1.970300 0.093200
v 5.813600 1.970300 -0.093200
v 5.538000 1.970300 -0.093200
v 5.813600 -1.970300 -0.093200
v 5.538000 -1.970300 -0.093200
v -0.317300 -1.970300 0.093200
v -0.041700 -1.970300 0.093200
v -0.041700 1.970300 0.093200
v -0.317300 1.970300 0.093200
v -0.041700 1.970300 -0.093200
v -0.317300 1.970300 -0.093200
v -0.041700 -1.970300 -0.093200
v -0.317300 -1.970300 -0.093200
v -1.819800 -1.970300 0.093200
v -1.544200 -1.970300 0.093200
v -1.544200 1.970300 0.093200
v -1.819800 1.970300 0.093200
v -1.544200 1.970300 -0.093200
v -1.819800 1.970300 -0.093200
v -1.544200 -1.970300 -0.093200
v -1.819800 -1.970300 -0.093200
v -3.319300 -1.970300 0.093200
v -3.043700 -1.970300 0.093200
v -3.043700 1.970300 0.093200
v -3.319300 1.970300 0.093200
v -3.043700 1.970300 -0.093200
v -3.319300 1.970300 -0.093200
v -3.043700 -1.970300 -0.093200
v -3.319300 -1.970300 -0.093200
v -4.804900 -1.970300 0.093200
v -4.529300 -1.970300 0.093200
v -4.529300 1.970300 0.093200
v -4.804900 1.970300 0.093200
v -4.529300 1.970300 -0.093200
v -4.804900 1.970300 -0.093200
v -4.529300 -1.970300 -0.093200
v -4.804900 -1.970300 -0.093200
v 5.622600 0.867900 0.020200
v 5.622600 1.384100 0.089400
v -4.598100 1.384100 0.089400
v -4.598100 0.867900 0.020200
v -4.598100 0.866200 0.020200
v 5.622600 0.866200 0.020200
v -4.598100 1.807500 0.089400
v 5.622600 1.807500 0.089400
v 5.622600 1.807500 -0.020200
v -4.598100 1.807500 -0.020200
v -4.598100 -1.679300 -0.020200
v 5.622600 -1.679300 -0.020200
v 5.622600 -1.679300 0.089400
v -4.598100 -1.679300 0.089400
v 5.622600 0.867900 -0.020200
v 5.622600 1.384100 -0.020200
v -4.598100 0.867900 -0.020200
v -4.598100 1.384100 -0.020200
v -4.598100 0.866200 -0.020200
v -4.598100 0.473300 -0.020200
v -4.598100 0.008900 -0.020200
v -4.598100 -0.544700 -0.020200
v -4.598100 -0.973400 -0.020200
v -4.598100 -1.402000 -0.020200
v 5.622600 0.866200 -0.020200
v 5.622600 0.473300 -0.020200
v 5.622600 0.008900 -0.020200
v 5.622600 -0.544700 -0.020200
v 5.622600 -0.973400 -0.020200
v 5.622600 -1.402000 -0.020200
v 5.622600 0.473300 0.020200
v 5.622600 0.008900 0.020200
v 5.622600 -0.544700 0.020200
v -4.598100 0.473300 0.020200
v -4.598100 0.008900 0.020200
v -4.598100 -0.544700 0.020200
v -4.598100 -0.973400 0.020200
v 5.622600 -0.973400 0.020200
v -4.598100 -1.402000 0.089400
v 5.622600 -1.402000 0.089400
vt 0.728200 0.002000
vt 0.747600 0.002000
vt 0.747600 0.278200
vt 0.728200 0.278200
vt 0.202800 0.741100
vt 0.202800 0.721800
vt 0.215900 0.721800
vt 0.215900 0.741100
vt 0.530100 0.002000
vt 0.549500 0.002000
vt 0.549500 0.278200
vt 0.530100 0.278200
vt 0.294200 0.741100
vt 0.294200 0.721800
vt 0.307200 0.721800
vt 0.307200 0.741100
vt 0.753000 0.002000
vt 0.766100 0.002000
vt 0.766100 0.278200
vt 0.753000 0.278200
vt 0.772800 0.002000
vt 0.785900 0.002000
vt 0.785900 0.278200
vt 0.772800 0.278200
vt 0.792600 0.002000
vt 0.811900 0.002000
vt 0.811900 0.278200
vt 0.792600 0.278200
vt 0.184600 0.741100
vt 0.184600 0.721800
vt 0.197700 0.721800
vt 0.197700 0.741100
vt 0.554900 0.002000
vt 0.574200 0.002000
vt 0.574200 0.278200
vt 0.554900 0.278200
vt 0.275900 0.741100
vt 0.275900 0.721800
vt 0.289000 0.721800
vt 0.289000 0.741100
vt 0.817400 0.002000
vt 0.830500 0.002000
vt 0.830500 0.278200
vt 0.817400 0.278200
vt 0.832300 0.281600
vt 0.845400 0.281600
vt 0.845400 0.557800
vt 0.832300 0.557800
vt 0.807800 0.281600
vt 0.827100 0.281600
vt 0.827100 0.557800
vt 0.807800 0.557800
vt 0.422000 0.741100
vt 0.422000 0.721800
vt 0.435100 0.721800
vt 0.435100 0.741100
vt 0.579700 0.002000
vt 0.599000 0.002000
vt 0.599000 0.278200
vt 0.579700 0.278200
vt 0.403800 0.741100
vt 0.403800 0.721800
vt 0.416800 0.721800
vt 0.416800 0.741100
vt 0.789500 0.281600
vt 0.802600 0.281600
vt 0.802600 0.557800
vt 0.789500 0.557800
vt 0.771300 0.281600
vt 0.784300 0.281600
vt 0.784300 0.557800
vt 0.771300 0.557800
vt 0.746700 0.281600
vt 0.766100 0.281600
vt 0.766100 0.557800
vt 0.746700 0.557800
vt 0.385500 0.741100
vt 0.385500 0.721800
vt 0.398600 0.721800
vt 0.398600 0.741100
vt 0.604400 0.002000
vt 0.623700 0.002000
vt 0.623700 0.278200
vt 0.604400 0.278200
vt 0.367200 0.741100
vt 0.367200 0.721800
vt 0.380300 0.721800
vt 0.380300 0.741100
vt 0.728500 0.281600
vt 0.741600 0.281600
vt 0.741600 0.557800
vt 0.728500 0.557800
vt 0.710200 0.281600
vt 0.723300 0.281600
vt 0.723300 0.557800
vt 0.710200 0.557800
vt 0.685700 0.281600
vt 0.705000 0.281600
vt 0.705000 0.557800
vt 0.685700 0.557800
vt 0.349000 0.741100
vt 0.349000 0.721800
vt 0.362000 0.721800
vt 0.362000 0.741100
vt 0.629200 0.002000
vt 0.648500 0.002000
vt 0.648500 0.278200
vt 0.629200 0.278200
vt 0.257600 0.741100
vt 0.257600 0.721800
vt 0.270700 0.721800
vt 0.270700 0.741100
vt 0.667400 0.281600
vt 0.680500 0.281600
vt 0.680500 0.557800
vt 0.667400 0.557800
vt 0.649200 0.281600
vt 0.662200 0.281600
vt 0.662200 0.557800
vt 0.649200 0.557800
vt 0.624700 0.281600
vt 0.644000 0.281600
vt 0.644000 0.557800
vt 0.624700 0.557800
vt 0.166300 0.741100
vt 0.166300 0.721800
vt 0.179400 0.721800
vt 0.179400 0.741100
vt 0.654000 0.002000
vt 0.673300 0.002000
vt 0.673300 0.278200
vt 0.654000 0.278200
vt 0.239400 0.741100
vt 0.239400 0.721800
vt 0.252400 0.721800
vt 0.252400 0.741100
vt 0.606400 0.281600
vt 0.619500 0.281600
vt 0.619500 0.557800
vt 0.606400 0.557800
vt 0.588100 0.281600
vt 0.601200 0.281600
vt 0.601200 0.557800
vt 0.588100 0.557800
vt 0.563600 0.281600
vt 0.582900 0.281600
vt 0.582900 0.557800
vt 0.563600 0.557800
vt 0.148100 0.741100
vt 0.148100 0.721800
vt 0.161100 0.721800
vt 0.161100 0.741100
vt 0.678700 0.002000
vt 0.698000 0.002000
vt 0.698000 0.278200
vt 0.678700 0.278200
vt 0.221100 0.741100
vt 0.221100 0.721800
vt 0.234200 0.721800
vt 0.234200 0.741100
vt 0.545400 0.281600
vt 0.558400 0.281600
vt 0.558400 0.557800
vt 0.545400 0.557800
vt 0.527100 0.721800
vt 0.540200 0.721800
vt 0.540200 0.998000
vt 0.527100 0.998000
vt 0.502600 0.721800
vt 0.521900 0.721800
vt 0.521900 0.998000
vt 0.502600 0.998000
vt 0.330700 0.741100
vt 0.330700 0.721800
vt 0.343800 0.721800
vt 0.343800 0.741100
vt 0.703500 0.002000
vt 0.722800 0.002000
vt 0.722800 0.278200
vt 0.703500 0.278200
vt 0.312400 0.741100
vt 0.312400 0.721800
vt 0.325500 0.721800
vt 0.325500 0.741100
vt 0.484300 0.721800
vt 0.497400 0.721800
vt 0.497400 0.998000
vt 0.484300 0.998000
vt 0.466000 0.721800
vt 0.479100 0.721800
vt 0.479100 0.998000
vt 0.466000 0.998000
vt 0.431300 0.002000
vt 0.467500 0.002000
vt 0.467500 0.718400
vt 0.431300 0.718400
vt 0.431200 0.718400
vt 0.431200 0.002000
vt 0.516900 0.718400
vt 0.516900 0.002000
vt 0.524600 0.002000
vt 0.524600 0.718400
vt 0.503700 0.718400
vt 0.503700 0.002000
vt 0.511400 0.002000
vt 0.511400 0.718400
vt 0.458000 0.900300
vt 0.460800 0.900300
vt 0.460800 0.936500
vt 0.453200 0.936500
vt 0.440300 0.900300
vt 0.443100 0.900300
vt 0.448000 0.936500
vt 0.440300 0.936500
vt 0.031400 0.718400
vt 0.001700 0.718400
vt 0.001700 0.002000
vt 0.067500 0.718400
vt 0.067700 0.718400
vt 0.095200 0.718400
vt 0.127800 0.718400
vt 0.166600 0.718400
vt 0.196600 0.718400
vt 0.226700 0.718400
vt 0.031400 0.002000
vt 0.067500 0.002000
vt 0.067700 0.002000
vt 0.095200 0.002000
vt 0.127800 0.002000
vt 0.166600 0.002000
vt 0.196600 0.002000
vt 0.226700 0.002000
vt 0.246100 0.002000
vt 0.246100 0.718400
vt 0.458000 0.900200
vt 0.460800 0.900200
vt 0.440300 0.900200
vt 0.443100 0.900200
vt 0.497200 0.002000
vt 0.497200 0.718400
vt 0.460800 0.966200
vt 0.453200 0.966200
vt 0.448000 0.966200
vt 0.440300 0.966200
vt 0.403700 0.002000
vt 0.371100 0.002000
vt 0.332300 0.002000
vt 0.403700 0.718400
vt 0.371100 0.718400
vt 0.332300 0.718400
vt 0.302300 0.718400
vt 0.302300 0.002000
vt 0.458000 0.872700
vt 0.460800 0.872700
vt 0.440300 0.872700
vt 0.443100 0.872700
vt 0.458000 0.840100
vt 0.460800 0.840100
vt 0.440300 0.840100
vt 0.443100 0.840100
vt 0.458000 0.801300
vt 0.460800 0.801300
vt 0.440300 0.801300
vt 0.443100 0.801300
vt 0.458000 0.771300
vt 0.460800 0.771300
vt 0.440300 0.771300
vt 0.443100 0.771300
vt 0.272200 0.718400
vt 0.272200 0.002000
vt 0.453200 0.741200
vt 0.460800 0.741200
vt 0.440300 0.741200
vt 0.448000 0.741200
vt 0.252800 0.718400
vt 0.252800 0.002000
vt 0.453200 0.721800
vt 0.460800 0.721800
vt 0.440300 0.721800
vt 0.448000 0.721800
vn 0.000000 -0.000000 1.000000
vn 0.000000 1.000000 0.000000
vn 0.000000 0.000000 -1.000000
vn 0.000000 -1.000000 0.000000
vn 1.000000 -0.000000 0.000000
vn -1.000000 -0.000000 0.000000
vn 0.000000 -0.132900 0.991100
vn 0.000000 0.159400 0.987200
usemtl lambert1
s off
f 1/1/1 2/2/1 3/3/1
f 4/4/1 1/1/1 3/3/1
f 4/5/2 3/6/2 5/7/2
f 5/7/2 6/8/2 4/5/2
f 6/9/3 5/10/3 7/11/3
f 7/11/3 8/12/3 6/9/3
f 8/13/4 7/14/4 2/15/4
f 2/15/4 1/16/4 8/13/4
f 2/17/5 7/18/5 5/19/5
f 5/19/5 3/20/5 2/17/5
f 8/21/6 1/22/6 4/23/6
f 4/23/6 6/24/6 8/21/6
f 9/25/1 10/26/1 11/27/1
f 11/27/1 12/28/1 9/25/1
f 12/29/2 11/30/2 13/31/2
f 13/31/2 14/32/2 12/29/2
f 14/33/3 13/34/3 15/35/3
f 15/35/3 16/36/3 14/33/3
f 16/37/4 15/38/4 10/39/4
f 10/39/4 9/40/4 16/37/4
f 10/41/5 15/42/5 13/43/5
f 13/43/5 11/44/5 10/41/5
f 16/45/6 9/46/6 12/47/6
f 12/47/6 14/48/6 16/45/6
f 17/49/1 18/50/1 19/51/1
f 19/51/1 20/52/1 17/49/1
f 20/53/2 19/54/2 21/55/2
f 21/55/2 22/56/2 20/53/2
f 22/57/3 21/58/3 23/59/3
f 23/59/3 24/60/3 22/57/3
f 24/61/4 23/62/4 18/63/4
f 18/63/4 17/64/4 24/61/4
f 18/65/5 23/66/5 21/67/5
f 21/67/5 19/68/5 18/65/5
f 24/69/6 17/70/6 20/71/6
f 20/71/6 22/72/6 24/69/6
f 25/73/1 26/74/1 27/75/1
f 27/75/1 28/76/1 25/73/1
f 28/77/2 27/78/2 29/79/2
f 29/79/2 30/80/2 28/77/2
f 30/81/3 29/82/3 31/83/3
f 31/83/3 32/84/3 30/81/3
f 32/85/4 31/86/4 26/87/4
f 26/87/4 25/88/4 32/85/4
f 26/89/5 31/90/5 29/91/5
f 29/91/5 27/92/5 26/89/5
f 32/93/6 25/94/6 28/95/6
f 28/95/6 30/96/6 32/93/6
f 33/97/1 34/98/1 35/99/1
f 35/99/1 36/100/1 33/97/1
f 36/101/2 35/102/2 37/103/2
f 37/103/2 38/104/2 36/101/2
f 38/105/3 37/106/3 39/107/3
f 39/107/3 40/108/3 38/105/3
f 40/109/4 39/110/4 34/111/4
f 34/111/4 33/112/4 40/109/4
f 34/113/5 39/114/5 37/115/5
f 37/115/5 35/116/5 34/113/5
f 40/117/6 33/118/6 36/119/6
f 36/119/6 38/120/6 40/117/6
f 41/121/1 42/122/1 43/123/1
f 43/123/1 44/124/1 41/121/1
f 44/125/2 43/126/2 45/127/2
f 45/127/2 46/128/2 44/125/2
f 46/129/3 45/130/3 47/131/3
f 47/131/3 48/132/3 46/129/3
f 48/133/4 47/134/4 42/135/4
f 42/135/4 41/136/4 48/133/4
f 42/137/5 47/138/5 45/139/5
f 45/139/5 43/140/5 42/137/5
f 48/141/6 41/142/6 44/143/6
f 44/143/6 46/144/6 48/141/6
f 49/145/1 50/146/1 51/147/1
f 51/147/1 52/148/1 49/145/1
f 52/149/2 51/150/2 53/151/2
f 53/151/2 54/152/2 52/149/2
f 54/153/3 53/154/3 55/155/3
f 55/155/3 56/156/3 54/153/3
f 56/157/4 55/158/4 50/159/4
f 50/159/4 49/160/4 56/157/4
f 50/161/5 55/162/5 53/163/5
f 53/163/5 51/164/5 50/161/5
f 56/165/6 49/166/6 52/167/6
f 52/167/6 54/168/6 56/165/6
f 57/169/1 58/170/1 59/171/1
f 59/171/1 60/172/1 57/169/1
f 60/173/2 59/174/2 61/175/2
f 61/175/2 62/176/2 60/173/2
f 62/177/3 61/178/3 63/179/3
f 63/179/3 64/180/3 62/177/3
f 64/181/4 63/182/4 58/183/4
f 58/183/4 57/184/4 64/181/4
f 58/185/5 63/186/5 61/187/5
f 61/187/5 59/188/5 58/185/5
f 64/189/6 57/190/6 60/191/6
f 60/191/6 62/192/6 64/189/6
f 65/193/7 66/194/7 67/195/7
f 65/193/7 67/195/7 68/196/7
f 65/193/1 68/196/1 69/197/1
f 65/193/1 69/197/1 70/198/1
f 71/199/2 72/200/2 73/201/2
f 73/201/2 74/202/2 71/199/2
f 75/203/4 76/204/4 77/205/4
f 77/205/4 78/206/4 75/203/4
f 65/207/5 79/208/5 80/209/5
f 80/209/5 66/210/5 65/207/5
f 81/211/6 68/212/6 67/213/6
f 67/213/6 82/214/6 81/211/6
f 82/215/3 74/216/3 73/217/3
f 81/218/3 82/215/3 73/217/3
f 83/219/3 81/218/3 73/217/3
f 84/220/3 83/219/3 73/217/3
f 85/221/3 84/220/3 73/217/3
f 86/222/3 85/221/3 73/217/3
f 87/223/3 86/222/3 73/217/3
f 88/224/3 87/223/3 73/217/3
f 88/224/3 73/217/3 80/225/3
f 88/224/3 80/225/3 79/226/3
f 88/224/3 79/226/3 89/227/3
f 88/224/3 89/227/3 90/228/3
f 88/224/3 90/228/3 91/229/3
f 88/224/3 91/229/3 92/230/3
f 88/224/3 92/230/3 93/231/3
f 88/224/3 93/231/3 94/232/3
f 88/224/3 94/232/3 76/233/3
f 88/224/3 76/233/3 75/234/3
f 79/208/5 65/207/5 70/235/5
f 70/235/5 89/236/5 79/208/5
f 68/212/6 81/211/6 83/237/6
f 83/237/6 69/238/6 68/212/6
f 67/195/1 66/194/1 72/239/1
f 72/239/1 71/240/1 67/195/1
f 66/210/5 80/209/5 73/241/5
f 73/241/5 72/242/5 66/210/5
f 82/214/6 67/213/6 71/243/6
f 71/243/6 74/244/6 82/214/6
f 95/245/1 70/198/1 69/197/1
f 96/246/1 95/245/1 69/197/1
f 97/247/1 96/246/1 69/197/1
f 97/247/1 69/197/1 98/248/1
f 97/247/1 98/248/1 99/249/1
f 97/247/1 99/249/1 100/250/1
f 97/247/1 100/250/1 101/251/1
f 97/247/1 101/251/1 102/252/1
f 89/236/5 70/235/5 95/253/5
f 95/253/5 90/254/5 89/236/5
f 69/238/6 83/237/6 84/255/6
f 84/255/6 98/256/6 69/238/6
f 90/254/5 95/253/5 96/257/5
f 96/257/5 91/258/5 90/254/5
f 98/256/6 84/255/6 85/259/6
f 85/259/6 99/260/6 98/256/6
f 91/258/5 96/257/5 97/261/5
f 97/261/5 92/262/5 91/258/5
f 99/260/6 85/259/6 86/263/6
f 86/263/6 100/264/6 99/260/6
f 92/262/5 97/261/5 102/265/5
f 102/265/5 93/266/5 92/262/5
f 100/264/6 86/263/6 87/267/6
f 87/267/6 101/268/6 100/264/6
f 102/252/8 101/251/8 103/269/8
f 103/269/8 104/270/8 102/252/8
f 93/266/5 102/265/5 104/271/5
f 104/271/5 94/272/5 93/266/5
f 101/268/6 87/267/6 88/273/6
f 88/273/6 103/274/6 101/268/6
f 104/270/1 103/269/1 78/275/1
f 78/275/1 77/276/1 104/270/1
f 94/272/5 104/271/5 77/277/5
f 77/277/5 76/278/5 94/272/5
f 103/274/6 88/273/6 75/279/6
f 75/279/6 78/280/6 103/274/6
